<svg width="32" height="32" xmlns="http://www.w3.org/2000/svg">

 <g>
  <title>background</title>
  <rect fill="none" id="canvas_background" height="402" width="582" y="-1" x="-1"/>
 </g>
 <g>
  <title>Layer 1</title>
  <path id="svg_1" fill="#ffffff" d="m10.456,16l6.196,-6.285c0.391,-0.394 0.391,-1.034 0,-1.428c-0.391,-0.394 -1.024,-0.394 -1.414,0l-6.899,6.999c-0.375,0.379 -0.377,1.048 0,1.429l6.9,6.999c0.39,0.394 1.024,0.394 1.414,0c0.391,-0.394 0.391,-1.034 0,-1.428l-6.197,-6.286z"/>
  <path id="svg_2" fill="#ffffff" d="m17.456,16l6.196,-6.285c0.391,-0.394 0.391,-1.034 0,-1.428c-0.391,-0.394 -1.024,-0.394 -1.414,0l-6.899,6.999c-0.375,0.379 -0.377,1.048 0,1.429l6.899,6.999c0.391,0.394 1.024,0.394 1.414,0c0.391,-0.394 0.391,-1.034 0,-1.428l-6.196,-6.286z"/>
 </g>
</svg>