<svg width="32" height="32" xmlns="http://www.w3.org/2000/svg">

 <g>
  <title>background</title>
  <rect fill="none" id="canvas_background" height="402" width="582" y="-1" x="-1"/>
 </g>
 <g>
  <title>Layer 1</title>
  <path id="svg_1" fill="#ffffff" d="m23.662,15.286l-6.9,-6.999c-0.39,-0.394 -1.024,-0.394 -1.414,0c-0.391,0.394 -0.391,1.034 0,1.428l6.196,6.285l-6.196,6.285c-0.391,0.394 -0.391,1.034 0,1.428c0.391,0.394 1.024,0.394 1.414,0l6.899,-6.999c0.377,-0.379 0.378,-1.048 0.001,-1.428z"/>
  <path stroke-width="0" id="svg_2" fill="#ffffff" d="m16.662,15.286l-6.899,-6.999c-0.391,-0.394 -1.024,-0.394 -1.414,0c-0.391,0.394 -0.391,1.034 0,1.428l6.195,6.285l-6.196,6.285c-0.391,0.394 -0.391,1.034 0,1.428c0.391,0.394 1.024,0.394 1.414,0l6.899,-6.999c0.377,-0.379 0.378,-1.048 0.001,-1.428z"/>
 </g>
</svg>